<?xml version="1.0" standalone="no"?>
<!DOCTYPE svg PUBLIC "-//W3C//DTD SVG 20010904//EN"
 "http://www.w3.org/TR/2001/REC-SVG-20010904/DTD/svg10.dtd">
<svg version="1.0" xmlns="http://www.w3.org/2000/svg"
 width="700.000000pt" height="700.000000pt" viewBox="0 0 700.000000 700.000000"
 preserveAspectRatio="xMidYMid meet">
<metadata>
Created by potrace 1.14, written by Peter Selinger 2001-2017
</metadata>
<g transform="translate(0.000000,700.000000) scale(0.100000,-0.100000)"
fill="#000000" stroke="none">
<path d="M3457 6564 c-1 -1 -54 -4 -117 -8 -63 -3 -124 -8 -135 -10 -11 -2
-42 -7 -70 -10 -636 -82 -1256 -432 -1670 -941 -75 -92 -203 -279 -241 -350
-12 -22 -36 -65 -53 -97 -127 -232 -234 -575 -276 -885 -23 -163 -23 -528 0
-652 1 -9 6 -38 9 -64 8 -54 11 -68 26 -142 6 -27 12 -59 14 -71 7 -34 45
-162 78 -257 117 -346 341 -711 588 -958 54 -55 87 -80 115 -88 155 -43 289
52 289 203 0 76 -18 111 -98 196 -319 337 -530 778 -582 1215 -3 28 -9 68 -13
90 -8 46 -6 368 3 435 7 53 17 117 22 145 2 11 8 45 14 75 5 30 15 71 21 90 5
19 12 46 15 59 12 61 99 280 152 382 241 471 604 811 1102 1032 131 58 332
116 497 143 16 2 42 6 58 9 147 24 458 23 601 -1 350 -58 624 -162 894 -339
389 -256 691 -636 855 -1077 48 -130 99 -337 111 -451 3 -28 7 -63 10 -77 2
-14 6 -81 10 -150 6 -143 22 -191 82 -240 110 -90 268 -55 334 75 23 44 27
123 15 285 -64 845 -529 1608 -1247 2045 -249 152 -570 281 -825 331 -11 2
-31 6 -45 9 -37 8 -139 23 -190 29 -78 10 -347 24 -353 20z"/>
<path d="M3367 5684 c-1 -1 -29 -5 -62 -8 -73 -9 -106 -14 -165 -27 -25 -6
-56 -13 -70 -15 -14 -3 -72 -21 -130 -40 -351 -117 -672 -359 -881 -665 -59
-86 -70 -106 -133 -234 -89 -183 -129 -317 -164 -550 -14 -98 -7 -384 12 -495
59 -335 217 -658 440 -897 82 -88 130 -116 201 -115 98 0 182 61 209 152 28
92 7 152 -90 260 -174 195 -280 412 -330 670 -13 71 -13 344 1 425 22 131 77
306 106 342 6 7 9 13 6 13 -3 0 12 33 35 73 159 284 431 508 738 610 141 47
269 65 435 62 158 -3 160 -3 295 -37 536 -131 947 -614 986 -1158 12 -176 14
-183 45 -231 87 -137 296 -129 371 14 52 98 20 411 -67 672 -26 78 -100 239
-147 320 -193 334 -523 611 -895 751 -67 25 -217 68 -273 78 -19 3 -44 8 -55
10 -70 13 -157 19 -278 21 -75 1 -138 1 -140 -1z"/>
<path d="M3336 4470 c-111 -57 -125 -93 -141 -375 -3 -49 -7 -128 -10 -175 -3
-47 -8 -121 -10 -165 -6 -103 -14 -228 -20 -335 -3 -47 -8 -116 -10 -155 -7
-123 -16 -278 -20 -335 -2 -30 -7 -111 -10 -180 -4 -69 -8 -141 -10 -160 -2
-19 -7 -93 -11 -165 -4 -71 -8 -146 -9 -165 -1 -19 -6 -89 -9 -155 -4 -66 -9
-145 -11 -175 -25 -356 -26 -473 -2 -517 50 -94 155 -141 255 -114 44 12 128
77 272 211 9 8 70 62 135 120 66 58 122 108 123 113 6 12 32 8 32 -6 0 -8 16
-72 36 -143 19 -71 37 -136 39 -144 5 -23 111 -418 150 -560 18 -69 44 -163
56 -210 27 -104 61 -157 118 -189 51 -28 140 -36 186 -17 82 35 138 117 138
201 0 31 -24 141 -65 290 -36 132 -85 312 -108 400 -23 88 -50 189 -60 225
-10 36 -30 111 -46 167 -15 57 -25 105 -22 108 3 3 61 -6 129 -20 68 -14 138
-28 154 -31 17 -3 46 -9 65 -14 19 -5 51 -11 70 -15 19 -3 76 -14 125 -24 103
-21 151 -19 203 8 70 36 112 98 117 173 5 74 -8 104 -117 268 -174 264 -498
755 -508 770 -14 20 -425 643 -564 854 -444 674 -420 645 -537 652 -51 4 -72
0 -103 -16z m419 -1095 c158 -239 482 -731 621 -941 52 -78 94 -144 94 -146 0
-4 -223 40 -440 87 -96 21 -103 20 -155 -26 -70 -62 -233 -208 -275 -246 -19
-17 -48 -41 -63 -53 l-28 -22 6 93 c7 113 12 189 20 329 3 58 8 141 10 185 3
44 7 116 10 160 3 44 7 114 10 155 3 41 7 118 10 170 3 52 8 122 10 155 4 61
17 289 18 313 0 18 0 19 152 -213z"/>
</g>
</svg>
